<svg width="747" height="746" xmlns="http://www.w3.org/2000/svg" xmlns:xlink="http://www.w3.org/1999/xlink" xml:space="preserve" overflow="hidden"><g transform="translate(-365 26)"><g><g><g><g><path d="M826.81 263.852C794.173 263.852 768.529 237.431 768.529 205.571 768.529 173.71 794.95 147.29 826.81 147.29 859.448 147.29 885.092 173.71 885.092 205.571 885.092 237.431 858.671 263.852 826.81 263.852ZM958.138 169.048C955.029 158.169 951.144 148.067 945.704 138.742L958.138 102.219 930.162 74.2438 893.64 86.6771C884.315 81.2375 874.213 77.3521 863.333 74.2438L846.237 40.0521 807.383 40.0521 790.287 74.2438C779.408 77.3521 769.306 81.2375 759.981 86.6771L723.458 74.2438 695.483 102.219 707.917 138.742C702.477 148.067 698.592 158.169 695.483 169.048L661.292 186.144 661.292 224.998 695.483 242.094C698.592 252.973 702.477 263.075 707.917 272.4L695.483 308.923 722.681 336.121 759.204 323.688C768.529 329.127 778.631 333.013 789.51 336.121L806.606 370.312 845.46 370.312 862.556 336.121C873.435 333.013 883.537 329.127 892.863 323.688L929.385 336.121 957.36 308.923 944.927 272.4C950.367 263.075 955.029 252.196 958.138 242.094L992.329 224.998 992.329 186.144 958.138 169.048Z" fill="#0E2B54" fill-rule="nonzero" fill-opacity="1"/><path d="M651.19 546.71C618.552 546.71 592.908 520.29 592.908 488.429 592.908 455.792 619.329 430.148 651.19 430.148 683.827 430.148 709.471 456.569 709.471 488.429 709.471 520.29 683.827 546.71 651.19 546.71L651.19 546.71ZM770.083 421.6 782.517 385.077 754.542 357.102 718.019 369.535C708.694 364.096 697.815 360.21 687.713 357.102L670.617 322.91 631.763 322.91 614.667 357.102C603.788 360.21 593.685 364.096 584.36 369.535L547.838 357.102 520.64 384.3 532.296 420.823C526.856 430.148 522.971 441.027 519.862 451.129L485.671 468.225 485.671 507.079 519.862 524.175C522.971 535.054 526.856 545.156 532.296 554.481L520.64 591.004 547.838 618.202 584.36 606.546C593.685 611.985 603.788 615.871 614.667 618.979L631.763 653.171 670.617 653.171 687.713 618.979C698.592 615.871 708.694 611.985 718.019 606.546L754.542 618.979 781.74 591.004 770.083 555.258C775.523 545.933 779.408 535.831 782.517 524.952L816.708 507.856 816.708 469.002 782.517 451.906C779.408 441.027 775.523 430.925 770.083 421.6Z" fill="#0E2B54" fill-rule="nonzero" fill-opacity="1"/></g></g></g></g></g></svg>