<svg width="1491" height="1490" xmlns="http://www.w3.org/2000/svg" xmlns:xlink="http://www.w3.org/1999/xlink" xml:space="preserve" overflow="hidden"><g transform="translate(-62 496)"><g><g><g><g><path d="M808 435.25C705.562 435.25 621.75 351.437 621.75 249 621.75 146.563 705.562 62.75 808 62.75 910.437 62.75 994.25 146.563 994.25 249 994.25 351.437 910.437 435.25 808 435.25ZM1227.06 132.594C1217.75 98.4479 1203.78 65.8542 1186.71 36.3646L1225.51-80.0417 1137.04-168.51 1020.64-129.708C989.594-146.781 957-160.75 922.854-170.062L870.083-278.708 745.917-278.708 691.594-170.062C657.448-160.75 624.854-146.781 595.365-129.708L478.958-168.51 390.49-80.0417 429.292 36.3646C412.219 67.4062 398.25 100 388.938 134.146L280.292 186.917 280.292 311.083 388.938 365.406C398.25 399.552 412.219 432.146 429.292 461.635L390.49 578.042 478.958 666.51 595.365 627.708C626.406 644.781 659 658.75 693.146 668.062L747.469 776.708 871.635 776.708 925.958 668.062C960.104 658.75 992.698 644.781 1022.19 627.708L1138.59 666.51 1227.06 578.042 1188.26 461.635C1205.33 430.594 1219.3 398 1228.61 363.854L1337.26 309.531 1337.26 185.365 1227.06 132.594Z" fill="#0E2B54" fill-rule="nonzero" fill-opacity="1"/></g></g></g></g></g></svg>